<svg xmlns="http://www.w3.org/2000/svg" width="65.296" height="14.367" viewBox="0 0 65.296 14.367"><g id="Group_301" data-name="Group 301" transform="translate(-145.975 -842.786)"><path id="facebook" d="M12.433,0H1.938A1.936,1.936,0,0,0,0,1.936V12.431a1.936,1.936,0,0,0,1.936,1.936H7.114l.009-5.134H5.789a.315.315,0,0,1-.315-.313L5.468,7.265a.315.315,0,0,1,.315-.316H7.114V5.35A2.613,2.613,0,0,1,9.9,2.484h1.358a.315.315,0,0,1,.315.315v1.4a.315.315,0,0,1-.315.315h-.834c-.9,0-1.075.428-1.075,1.056V6.949h1.978a.315.315,0,0,1,.313.352l-.2,1.655a.315.315,0,0,1-.313.278H9.362l-.009,5.134h3.08a1.936,1.936,0,0,0,1.936-1.936V1.936A1.936,1.936,0,0,0,12.433,0Z" transform="translate(145.973 842.786)" fill="#f6be3b"></path><path id="Path_155" data-name="Path 155" d="M2.39-2.376H3.611V-3.3h.456V-4.385H3.611V-5.459H2.39v1.074H1.8L3.348-7.893H1.9L.242-4.115V-3.3H2.39Zm2.712,0H6.478v-1.19H5.1Zm2.959,0h1.53l1.236-2.256a2.62,2.62,0,0,0,.394-1.6,1.7,1.7,0,0,0-.363-1.306,1.907,1.907,0,0,0-1.445-.448,2,2,0,0,0-1.344.363c-.332.278-.456.665-.456,1.414,0,.92.178,1.314.711,1.569a2.183,2.183,0,0,0,.92.209Zm1.36-4.5c.325,0,.44.178.44.68,0,.518-.108.688-.44.688s-.448-.17-.448-.688S9.082-6.881,9.422-6.881Zm6.344,2.372h.371l1,2.133h1.522l-1.19-2.241c.688-.209.95-.657.95-1.607a1.636,1.636,0,0,0-.4-1.267,1.9,1.9,0,0,0-1.468-.4H14.39v5.517h1.375Zm-.023-1.043V-6.8h.672c.487,0,.649.155.649.626s-.162.626-.649.626Zm7.217,2.2.294.974h1.484L22.743-7.893H21.406L19.42-2.376H20.9L21.2-3.35Zm-.325-1.089H21.522L22.086-6.3Zm3.531,2.063h1.375v-4.4h1.422V-7.893H24.744v1.113h1.422Zm3.91,0h1.375V-7.893H30.076Zm2.874,0h1.329V-5.6l1.692,3.222h1.337V-7.893H35.979v3.222L34.287-7.893H32.95Zm7.928-2.117H41.6v.247c0,.626-.209.858-.78.858-.595,0-.757-.263-.757-1.229V-5.629c0-.966.162-1.229.75-1.229.471,0,.68.2.742.7l1.26-.085A1.76,1.76,0,0,0,42.5-7.3a1.906,1.906,0,0,0-1.708-.665,2.042,2.042,0,0,0-1.646.564,2.173,2.173,0,0,0-.464,1.661v1.229a2.33,2.33,0,0,0,.379,1.569,2.012,2.012,0,0,0,1.739.657,2.006,2.006,0,0,0,1.793-.68,2.393,2.393,0,0,0,.363-1.584v-.989H40.878Z" transform="translate(167.469 859.362)" fill="#f6be3b"></path><g id="Group_10" data-name="Group 10" transform="translate(167.486 842.924)"><g id="star" transform="translate(0 0)"><path id="Path_6" data-name="Path 6" d="M5.465,13.805l-1.813-.168-.72-1.672a.145.145,0,0,0-.267,0l-.72,1.672-1.813.168a.145.145,0,0,0-.082.254l1.368,1.2-.4,1.776a.145.145,0,0,0,.216.157l1.566-.93,1.566.93a.145.145,0,0,0,.216-.157l-.4-1.776,1.368-1.2A.145.145,0,0,0,5.465,13.805Z" transform="translate(0 -11.877)" fill="#f6be3b"></path><path id="Path_7" data-name="Path 7" d="M2.932,11.965a.145.145,0,0,0-.267,0l-.72,1.672-1.813.168a.145.145,0,0,0-.082.254l1.368,1.2-.4,1.776a.145.145,0,0,0,.216.157l.349-.207a6.408,6.408,0,0,1,1.706-4.195Z" transform="translate(0 -11.877)" fill="#f6be3b"></path></g><g id="star-2" data-name="star" transform="translate(38.189 0)"><path id="Path_6-2" data-name="Path 6" d="M5.465,13.805l-1.813-.168-.72-1.672a.145.145,0,0,0-.267,0l-.72,1.672-1.813.168a.145.145,0,0,0-.082.254l1.368,1.2-.4,1.776a.145.145,0,0,0,.216.157l1.566-.93,1.566.93a.145.145,0,0,0,.216-.157l-.4-1.776,1.368-1.2A.145.145,0,0,0,5.465,13.805Z" transform="translate(0 -11.877)" fill="#f6be3b"></path><path id="Path_7-2" data-name="Path 7" d="M2.932,11.965a.145.145,0,0,0-.267,0l-.72,1.672-1.813.168a.145.145,0,0,0-.082.254l1.368,1.2-.4,1.776a.145.145,0,0,0,.216.157l.349-.207a6.408,6.408,0,0,1,1.706-4.195Z" transform="translate(0 -11.877)" fill="#f6be3b"></path></g><g id="star-3" data-name="star" transform="translate(18.771 0)"><path id="Path_6-3" data-name="Path 6" d="M5.465,13.805l-1.813-.168-.72-1.672a.145.145,0,0,0-.267,0l-.72,1.672-1.813.168a.145.145,0,0,0-.082.254l1.368,1.2-.4,1.776a.145.145,0,0,0,.216.157l1.566-.93,1.566.93a.145.145,0,0,0,.216-.157l-.4-1.776,1.368-1.2A.145.145,0,0,0,5.465,13.805Z" transform="translate(0 -11.877)" fill="#f6be3b"></path><path id="Path_7-3" data-name="Path 7" d="M2.932,11.965a.145.145,0,0,0-.267,0l-.72,1.672-1.813.168a.145.145,0,0,0-.082.254l1.368,1.2-.4,1.776a.145.145,0,0,0,.216.157l.349-.207a6.408,6.408,0,0,1,1.706-4.195Z" transform="translate(0 -11.877)" fill="#f6be3b"></path></g><g id="star-4" data-name="star" transform="translate(28.48 0)"><path id="Path_6-4" data-name="Path 6" d="M5.465,13.805l-1.813-.168-.72-1.672a.145.145,0,0,0-.267,0l-.72,1.672-1.813.168a.145.145,0,0,0-.082.254l1.368,1.2-.4,1.776a.145.145,0,0,0,.216.157l1.566-.93,1.566.93a.145.145,0,0,0,.216-.157l-.4-1.776,1.368-1.2A.145.145,0,0,0,5.465,13.805Z" transform="translate(0 -11.877)" fill="#f6be3b"></path><path id="Path_7-4" data-name="Path 7" d="M2.932,11.965a.145.145,0,0,0-.267,0l-.72,1.672-1.813.168a.145.145,0,0,0-.082.254l1.368,1.2-.4,1.776a.145.145,0,0,0,.216.157l.349-.207a6.408,6.408,0,0,1,1.706-4.195Z" transform="translate(0 -11.877)" fill="#f6be3b"></path></g><g id="star-5" data-name="star" transform="translate(9.709 0)"><path id="Path_6-5" data-name="Path 6" d="M5.465,13.805l-1.813-.168-.72-1.672a.145.145,0,0,0-.267,0l-.72,1.672-1.813.168a.145.145,0,0,0-.082.254l1.368,1.2-.4,1.776a.145.145,0,0,0,.216.157l1.566-.93,1.566.93a.145.145,0,0,0,.216-.157l-.4-1.776,1.368-1.2A.145.145,0,0,0,5.465,13.805Z" transform="translate(0 -11.877)" fill="#f6be3b"></path><path id="Path_7-5" data-name="Path 7" d="M2.932,11.965a.145.145,0,0,0-.267,0l-.72,1.672-1.813.168a.145.145,0,0,0-.082.254l1.368,1.2-.4,1.776a.145.145,0,0,0,.216.157l.349-.207a6.408,6.408,0,0,1,1.706-4.195Z" transform="translate(0 -11.877)" fill="#f6be3b"></path></g></g></g></svg>