<svg xmlns="http://www.w3.org/2000/svg" width="126.451" height="126.525" viewBox="0 0 126.451 126.525"><g id="green" transform="translate(0 -0.001)"><path id="Path_187" data-name="Path 187" d="M133.057,167.7a41.529,41.529,0,1,0-41.529,41.639A41.583,41.583,0,0,0,133.057,167.7Zm0,0" transform="translate(-37.644 -94.907)" fill="#4984e8"></path><path id="Path_188" data-name="Path 188" d="M198.947,126.059a41.707,41.707,0,0,0-6.271.472,41.662,41.662,0,0,1,0,82.333,41.632,41.632,0,1,0,6.271-82.805Zm0,0" transform="translate(-145.062 -94.907)" fill="#4984e8"></path><g id="Group_268" data-name="Group 268" transform="translate(12.356 31.236)"><path id="Path_189" data-name="Path 189" d="M169.3,142.5c-6.4,4.009-11.2,10.422-7.6,17.639s11.6,4.41,18.992,3.408,1.8,21.849,6.2,27.461,16.792-5.612,15.594-12.829c-1.776-10.684-2.4-14.432,11.995-22.049l.039-.014A41.573,41.573,0,0,0,177.3,126.4l0,.063s-1.6,12.027-8,16.036Zm0,0" transform="translate(-133.171 -126.399)" fill="#baeb6c"></path><path id="Path_190" data-name="Path 190" d="M323.34,163.238l.009.007Zm0,0" transform="translate(-255.793 -154.134)" fill="#baeb6c"></path><path id="Path_191" data-name="Path 191" d="M343.891,182.9l0,0Zm0,0" transform="translate(-271.265 -168.934)" fill="#baeb6c"></path><path id="Path_192" data-name="Path 192" d="M63.94,269.194c-1.921-2.93,3.4-9.821,4.6-15.033s-6-4.811-8.2-6.615-5.2-9.621-7.4-11.425l-.351-.277A41.753,41.753,0,0,0,66.926,283.9l.013-.873a19.168,19.168,0,0,0-3-13.831Zm0,0" transform="translate(-50 -208.798)" fill="#baeb6c"></path><path id="Path_193" data-name="Path 193" d="M319.91,335.448l-.026-.155a41.392,41.392,0,0,1-3.45,9.14C318.8,341.645,320.374,338.246,319.91,335.448Zm0,0" transform="translate(-250.593 -283.671)" fill="#baeb6c"></path></g><path id="Path_194" data-name="Path 194" d="M227.115,126.4l0,.063s-.133,1-.477,2.526a41.656,41.656,0,0,1,26.692,35.141c1.835-2.51,5.191-4.944,10.97-8l.039-.014A41.573,41.573,0,0,0,227.115,126.4Zm0,0" transform="translate(-170.631 -95.162)" fill="#96d629"></path><path id="Path_195" data-name="Path 195" d="M53.828,186.875a54.332,54.332,0,0,1-8.864-.731A53.7,53.7,0,0,1,.73,124.415a1.881,1.881,0,0,1,3.712.613A49.94,49.94,0,0,0,102.987,141.3,49.937,49.937,0,0,0,61.852,83.9a1.881,1.881,0,1,1,.612-3.712,53.706,53.706,0,0,1-8.636,106.691Zm0,0" transform="translate(0 -60.35)" fill="#09a66d"></path><path id="Path_196" data-name="Path 196" d="M72.466,45.443C52.383,42.035,39.925,16.75,39.925,16.75S60.028-3.011,80.11.4,112.65,29.087,112.65,29.087s-20.1,19.762-40.185,16.355Zm0,0" transform="translate(-30.059 0)" fill="#49cb5c"></path><path id="Path_197" data-name="Path 197" d="M167.912.4a31.167,31.167,0,0,0-11.366.286C175.79,5,187.661,29.088,187.661,29.088S174.5,42.023,158.84,45.158c.472.106.947.2,1.428.286,20.082,3.407,40.185-16.355,40.185-16.355S187.994,3.8,167.912.4Zm0,0" transform="translate(-117.861 -0.001)" fill="#07b128"></path><path id="Path_198" data-name="Path 198" d="M111.516,27.149,91.877,23.836,73.532.215a34.542,34.542,0,0,0-4.344.542L86.394,22.91l-14.809-2.5L58.949,4.063c-1.185.535-2.338,1.1-3.449,1.691L66.116,19.489,41.629,15.358c-1.1.96-1.7,1.553-1.7,1.553s.4.818,1.178,2.174l24.354,4.108L51.951,33.637c.87.9,1.782,1.781,2.736,2.64L70.506,24.045,86.183,26.69l-21.322,16.5a31.317,31.317,0,0,0,4.1,1.583L91.232,27.543l19.652,3.315c1.139-.993,1.767-1.609,1.767-1.609s-.389-.788-1.135-2.1Zm0,0" transform="translate(-30.06 -0.161)" fill="#09a66d"></path><path id="Path_199" data-name="Path 199" d="M384.613,32.653c5.387-12.748,24.054-17.04,24.054-17.04s9.932,16.376,4.545,29.124-24.054,17.04-24.054,17.04-9.932-16.376-4.545-29.124Zm0,0" transform="translate(-288.362 -11.754)" fill="#49cb5c"></path><path id="Path_200" data-name="Path 200" d="M422.013,15.613a49.9,49.9,0,0,0-9.27,3.381c2.578,5.462,6.665,16.546,2.778,25.744-2.818,6.668-9.27,11.023-14.783,13.659,1,2.108,1.767,3.381,1.767,3.381s18.666-4.292,24.053-17.04-4.546-29.124-4.546-29.124Zm0,0" transform="translate(-301.709 -11.754)" fill="#07b128"></path><path id="Path_201" data-name="Path 201" d="M428.99,34.223l-14.354,6.022,9.424-22.531c-.675-1.332-1.141-2.1-1.141-2.1s-.888.2-2.333.656l-9.74,23.285-6.04-14.861a25.9,25.9,0,0,0-2.864,2.946l6.844,16.84-6.429,15.37c.627,1.225,1.053,1.928,1.053,1.928s.965-.222,2.518-.714l6.638-15.87,16.418-6.887A26.949,26.949,0,0,0,428.99,34.223Zm0,0" transform="translate(-302.615 -11.754)" fill="#09a66d"></path></g></svg>