<svg xmlns="http://www.w3.org/2000/svg" width="512.000000pt" height="512.000000pt" viewBox="0 0 512.000000 512.000000" preserveAspectRatio="xMidYMid meet"><metadata>
Created by potrace 1.16, written by Peter Selinger 2001-2019
</metadata><g transform="translate(0.000000,512.000000) scale(0.100000,-0.100000)" fill="#000000" stroke="none"><path d="M2100 5083 c-10 -31 -213 -240 -1019 -1048 -554 -555 -1022 -1027 -1039 -1048 -33 -39 -41 -67 -20 -67 7 0 466 453 1020 1007 l1008 1008 -31 -95 -31 -95 -957 -960 c-527 -528 -972 -977 -989 -998 -33 -39 -41 -67 -20 -67 7 0 443 431 970 957 l958 958 -31 -95 -31 -95 -907 -910 c-499 -500 -922 -927 -939 -948 -33 -39 -41 -67 -20 -67 7 0 421 408 920 907 l908 908 -31 -95 -31 -95 -857 -860 c-472 -473 -872 -877 -889 -898 -33 -39 -41 -67 -20 -67 7 0 398 386 870 857 l858 858 -31 -95 -31 -95 -807 -810 c-444 -445 -822 -827 -839 -848 -33 -39 -41 -67 -20 -67 7 0 376 363 820 807 l808 808 -31 -95 -31 -95 -757 -760 c-417 -418 -772 -777 -789 -798 -33 -39 -41 -67 -20 -67 7 0 353 341 770 757 l758 758 -31 -95 -31 -95 -707 -710 c-389 -390 -722 -727 -739 -748 -33 -39 -41 -67 -20 -67 6 0 331 318 720 707 l708 708 -31 -95 -31 -95 -657 -660 c-362 -363 -672 -677 -689 -698 -33 -39 -41 -67 -20 -67 6 0 308 296 670 657 l658 657 -31 -94 -31 -95 -607 -610 c-334 -335 -622 -627 -639 -648 -33 -39 -41 -67 -20 -67 6 0 302 290 658 645 l646 645 64 0 65 0 -691 -692 c-380 -381 -705 -710 -722 -731 -33 -39 -41 -67 -20 -67 7 0 348 335 758 745 l746 745 64 0 65 0 -791 -792 c-435 -436 -805 -810 -822 -831 -33 -39 -41 -67 -20 -67 7 0 393 380 858 845 l845 845 65 0 65 0 -891 -892 c-490 -491 -905 -910 -922 -931 -33 -39 -41 -67 -20 -67 7 0 438 425 958 945 l945 945 65 0 65 0 -991 -992 c-545 -546 -1005 -1010 -1022 -1031 -33 -39 -41 -67 -20 -67 7 0 483 470 1058 1045 l1045 1045 58 0 c31 0 57 -3 57 -8 0 -4 -475 -482 -1056 -1062 -581 -580 -1082 -1085 -1115 -1123 -57 -65 -72 -97 -47 -97 7 0 500 487 1095 1082 l1083 1083 -31 -95 -31 -95 -1032 -1035 c-568 -569 -1047 -1052 -1064 -1073 -33 -39 -41 -67 -20 -67 7 0 477 465 1046 1033 l1033 1032 -36 -100 -36 -100 -979 -980 c-539 -540 -980 -986 -980 -993 0 -21 28 -13 67 20 21 17 446 439 945 937 500 498 908 903 908 900 0 -3 -14 -45 -30 -95 l-30 -89 -830 -830 c-457 -457 -830 -836 -830 -843 0 -21 28 -13 67 20 21 17 379 372 796 787 l757 756 -31 -95 -31 -95 -679 -681 c-374 -374 -679 -686 -679 -692 0 -21 28 -13 67 20 21 17 311 304 644 636 l607 605 -35 -99 -34 -99 -524 -526 c-289 -289 -525 -531 -525 -537 0 -21 28 -13 67 20 21 17 242 234 490 482 249 248 453 448 453 444 0 -3 -14 -46 -31 -95 l-31 -88 -374 -376 c-206 -207 -374 -381 -374 -388 0 -20 29 -12 67 21 21 17 174 167 341 332 l302 301 -31 -95 -32 -95 -223 -227 c-123 -124 -224 -231 -224 -237 0 -20 29 -11 67 21 21 17 104 97 186 177 81 80 147 143 147 140 0 -3 -13 -44 -29 -92 -26 -77 -38 -97 -100 -164 -39 -42 -71 -80 -71 -85 0 -18 31 -6 66 24 l37 32 -8 -32 c-3 -18 -4 -32 -2 -32 3 0 36 42 72 93 53 72 450 476 1844 1872 978 979 1792 1797 1809 1818 33 39 41 67 20 67 -7 0 -775 -762 -1706 -1692 l-1694 -1693 162 225 163 225 1512 1515 c831 833 1526 1532 1543 1553 33 39 41 67 20 67 -7 0 -654 -640 -1437 -1422 -784 -783 -1420 -1416 -1414 -1408 6 8 79 110 163 225 l152 210 1242 1245 c683 685 1257 1262 1274 1283 33 39 41 67 20 67 -7 0 -534 -521 -1171 -1157 l-1159 -1158 162 225 163 225 977 980 c537 539 991 997 1008 1018 33 39 41 67 20 67 -7 0 -413 -399 -902 -887 -489 -489 -885 -881 -879 -873 6 8 79 110 163 225 l152 210 707 710 c389 391 722 727 739 748 33 39 41 67 20 67 -6 0 -293 -280 -637 -623 l-626 -622 -58 5 -57 5 636 635 c350 349 662 665 695 703 57 65 72 97 47 97 -7 0 -336 -324 -733 -720 l-721 -720 -64 0 -65 0 766 768 c421 422 780 784 797 805 33 39 41 67 20 67 -7 0 -381 -369 -833 -820 l-821 -820 -64 0 -64 0 837 838 c460 461 837 843 837 850 0 25 -32 10 -97 -47 -38 -33 -423 -415 -858 -850 l-790 -791 -65 0 -64 0 837 838 c460 461 837 843 837 850 0 25 -32 10 -97 -47 -38 -33 -423 -415 -858 -850 l-790 -791 -65 0 -64 0 837 838 c460 461 837 843 837 850 0 25 -32 10 -97 -47 -38 -33 -423 -415 -858 -850 -449 -450 -798 -791 -808 -791 -14 0 -10 15 29 93 l46 92 744 746 c409 410 744 750 744 757 0 21 -28 13 -67 -20 -21 -17 -332 -324 -691 -682 l-652 -651 66 130 67 130 538 541 c297 297 539 546 539 552 0 21 -28 13 -67 -20 -21 -17 -240 -232 -486 -477 l-449 -446 68 130 67 130 334 336 c183 185 333 341 333 348 0 20 -29 11 -67 -21 -21 -17 -148 -140 -282 -272 l-243 -241 68 130 c63 121 76 139 196 263 70 73 128 137 128 142 0 24 -36 5 -106 -56 l-75 -66 36 71 35 71 -789 0 -789 0 -12 -37z"></path><path d="M303 5052 c-86 -74 -272 -269 -286 -299 -33 -73 41 -14 241 191 78 80 142 151 142 156 0 23 -34 6 -97 -48z"></path><path d="M503 5051 c-104 -90 -480 -475 -488 -500 -12 -37 2 -35 52 7 72 60 533 529 533 541 0 24 -33 8 -97 -48z"></path><path d="M703 5051 c-112 -97 -680 -674 -687 -699 -23 -71 24 -29 442 391 188 189 342 349 342 356 0 24 -32 8 -97 -48z"></path><path d="M903 5051 c-116 -100 -880 -875 -888 -899 -22 -72 19 -35 543 491 243 244 442 449 442 455 0 25 -32 10 -97 -47z"></path><path d="M1103 5051 c-118 -102 -1080 -1075 -1088 -1099 -11 -38 2 -37 52 6 79 66 1133 1127 1133 1140 0 25 -32 10 -97 -47z"></path><path d="M1303 5051 c-119 -104 -1280 -1275 -1288 -1299 -11 -38 2 -37 52 6 80 67 1333 1327 1333 1340 0 25 -32 10 -97 -47z"></path><path d="M1503 5051 c-121 -105 -1480 -1475 -1488 -1499 -11 -38 2 -37 52 6 81 68 1533 1527 1533 1540 0 25 -32 10 -97 -47z"></path><path d="M1703 5051 c-121 -105 -1680 -1675 -1688 -1699 -11 -38 2 -37 52 6 81 68 1733 1727 1733 1740 0 25 -32 10 -97 -47z"></path><path d="M1903 5051 c-122 -106 -1881 -1875 -1888 -1899 -11 -38 2 -37 52 6 82 69 1933 1927 1933 1940 0 25 -32 10 -97 -47z"></path><path d="M3322 1878 c-975 -975 -1792 -1795 -1814 -1821 -43 -50 -44 -63 -6 -52 23 7 3450 3423 3559 3548 57 65 72 97 47 97 -7 0 -811 -798 -1786 -1772z"></path><path d="M3422 1778 c-920 -920 -1692 -1695 -1714 -1721 -43 -50 -44 -63 -6 -52 23 7 3250 3223 3359 3348 57 65 72 97 47 97 -7 0 -766 -753 -1686 -1672z"></path><path d="M3522 1678 c-865 -865 -1592 -1595 -1614 -1621 -43 -50 -44 -63 -6 -52 23 7 3051 3023 3159 3148 57 65 72 97 47 97 -7 0 -721 -708 -1586 -1572z"></path><path d="M3622 1578 c-810 -810 -1492 -1495 -1514 -1521 -43 -50 -44 -63 -6 -52 23 7 2851 2824 2959 2948 57 65 72 97 47 97 -7 0 -676 -663 -1486 -1472z"></path><path d="M3722 1478 c-755 -755 -1392 -1395 -1414 -1421 -43 -50 -44 -63 -6 -52 23 7 2651 2624 2759 2748 57 65 72 97 47 97 -7 0 -630 -618 -1386 -1372z"></path><path d="M3822 1378 c-700 -700 -1292 -1295 -1314 -1321 -43 -50 -44 -63 -6 -52 23 7 2451 2424 2559 2548 57 65 72 97 47 97 -7 0 -585 -573 -1286 -1272z"></path><path d="M3922 1278 c-645 -645 -1192 -1195 -1214 -1221 -43 -50 -44 -63 -6 -52 23 7 2252 2225 2359 2348 57 65 72 97 47 97 -7 0 -540 -528 -1186 -1172z"></path><path d="M4022 1178 c-590 -590 -1092 -1095 -1114 -1121 -43 -50 -44 -63 -6 -52 24 7 2052 2025 2159 2148 57 65 72 97 47 97 -7 0 -495 -483 -1086 -1072z"></path><path d="M4122 1078 c-535 -535 -992 -995 -1014 -1021 -43 -50 -44 -63 -6 -52 24 7 1853 1826 1959 1948 57 65 72 97 47 97 -7 0 -450 -438 -986 -972z"></path><path d="M4222 978 c-480 -480 -892 -895 -914 -921 -43 -50 -44 -63 -6 -52 24 8 1653 1626 1759 1748 57 65 72 97 47 97 -7 0 -405 -393 -886 -872z"></path><path d="M4322 878 c-754 -754 -860 -863 -849 -874 3 -3 16 -3 29 1 24 8 1454 1427 1559 1548 57 65 72 97 47 97 -7 0 -360 -348 -786 -772z"></path><path d="M4422 778 c-658 -658 -760 -763 -749 -774 3 -3 16 -3 29 1 24 8 1255 1228 1359 1348 57 65 72 97 47 97 -6 0 -315 -303 -686 -672z"></path><path d="M4522 678 c-664 -663 -694 -695 -620 -673 24 8 1056 1030 1159 1148 57 65 72 97 47 97 -6 0 -270 -258 -586 -572z"></path><path d="M4623 578 c-558 -557 -594 -595 -521 -573 24 8 858 832 959 948 57 65 72 97 47 97 -6 0 -225 -213 -485 -472z"></path><path d="M4723 478 c-452 -450 -492 -495 -421 -472 25 7 661 634 759 747 56 65 72 97 48 97 -7 0 -180 -168 -386 -372z"></path><path d="M4823 378 c-345 -342 -390 -394 -322 -373 25 8 468 441 560 548 56 64 72 97 48 97 -6 0 -135 -123 -286 -272z"></path><path d="M4924 278 c-185 -182 -261 -265 -250 -275 14 -14 62 23 192 149 203 197 286 298 244 298 -6 0 -90 -78 -186 -172z"></path></g></svg>