<svg xmlns="http://www.w3.org/2000/svg" xmlns:xlink="http://www.w3.org/1999/xlink" id="Layer_1" x="0px" y="0px" viewBox="0 0 1181 1280" style="enable-background:new 0 0 1181 1280;" xml:space="preserve">
<style type="text/css">
	.st0{fill:#FFFFFF;}
</style>
<g transform="translate(0.000000,1280.000000) scale(0.100000,-0.100000)">
	<path class="st0" d="M10085,12745c-863-29-1753-59-1977-66l-407-13l-279-280c-153-155-776-787-1383-1406S4564,9477,4111,9015   s-948-965-1100-1117c-151-153-273-280-270-282c5-5,321-18,1154-46c319-11,702-24,850-30c149-5,354-12,458-16c103-4,187-7,187-8   c0-3-1683-1679-2884-2872C1220,3366,1169,3315,1201,3313c19-1,315-7,659-12c344-6,731-14,861-17l237-6L1897,2106   C1313,1462,651,730,424,480C67,86-8-3,21,7c3,1,1315,732,2915,1624s3212,1790,3581,1996c370,206,670,379,667,384c-3,6-131,7-317,4   c-592-10-2309-27-2313-22c-3,3,1209,974,2693,2158l2698,2154l-1463,5l-1462,5l328,306c180,168,1256,1173,2392,2234   c1136,1060,2067,1932,2068,1936C11813,12803,11858,12804,10085,12745z"></path>
</g>
</svg>